<svg width="205" height="151" xmlns="http://www.w3.org/2000/svg" viewBox="0 0 205 151">
 <g>
  <g stroke="null" fill="currentColor" id="svg_1">
   <path stroke="null" d="m72.53957,150.5167c-3.37297,-0.41539 -8.73981,-2.07695 -14.4722,-4.4696c-5.49977,-2.29295 -23.37817,-10.9663 -38.84731,-18.85873c-13.92389,-7.11149 -15.7516,-8.14166 -17.39654,-9.7866c-0.89724,-0.89724 -1.64495,-2.27634 -1.64495,-3.05727c0,-1.4954 1.36248,-3.28989 3.42282,-4.51945c0.63139,-0.36555 4.28683,-2.20988 8.12503,-4.08744c3.83821,-1.87756 13.25926,-6.49671 20.93568,-10.26845c29.44287,-14.45558 33.89586,-16.599 35.88972,-17.26362c5.16745,-1.72802 10.40138,-0.63139 16.03407,3.33974c2.64188,1.86095 3.62221,2.40927 4.83514,2.72496c1.21294,0.3157 2.01049,0.23262 3.12373,-0.33232c3.04066,-1.54526 4.08744,-6.13116 2.57543,-11.34846c-1.41233,-4.91822 -4.12067,-8.97244 -6.87886,-10.3183c-1.17971,-0.58155 -2.97419,-1.03017 -4.17052,-1.03017c-1.19633,0 -3.55574,0.44862 -5.30038,1.03017c-2.84127,0.91385 -4.2536,1.56187 -27.49885,12.3454c-27.64838,12.82725 -36.45466,16.383 -40.57533,16.36637c-1.24617,-0.01661 -2.32618,-0.48185 -2.47573,-1.08001c-0.216,-0.8474 0.06646,-2.06034 0.79755,-3.45605c1.14648,-2.19326 6.54655,-9.43767 13.8408,-18.55964c1.94402,-2.42588 3.7219,-4.80191 3.97113,-5.26715c1.17971,-2.3428 1.22956,-4.80191 0.18277,-8.44073c-0.23262,-0.78094 -1.1631,-3.30651 -2.06034,-5.61607c-3.80497,-9.72013 -5.99824,-18.01132 -6.67947,-25.27235c-0.26585,-2.92435 -0.11631,-7.82595 0.33232,-9.86968c1.84433,-8.60689 6.74594,-13.49188 13.14295,-13.09311c3.40621,0.216 6.76256,1.5951 10.36814,4.28683c2.84127,2.11018 8.77305,8.07519 14.32266,14.37251l1.64495,1.87756l44.29723,0l44.28061,0l0.83078,-0.94709c3.80497,-4.43637 10.56753,-11.48139 13.27587,-13.82419c5.28377,-4.56929 10.60076,-6.52994 15.1202,-5.58285c4.96807,1.04678 8.70658,5.73239 10.23522,12.91033c0.432,2.01049 0.59816,7.07825 0.33232,9.86968c-0.71447,7.1281 -3.05727,16.16699 -6.33055,24.34187c-0.56493,1.41233 -1.29601,3.27328 -1.61172,4.13729c-1.79449,4.93484 -1.97726,8.14166 -0.61478,10.83338c0.24923,0.48185 2.17665,3.04066 4.28683,5.69916c6.29732,7.8758 11.96324,15.38606 13.15957,17.41317c1.32924,2.27634 1.5951,3.85483 0.79755,4.65238c-1.34587,1.34587 -5.69916,0.48185 -13.32573,-2.64188c-6.5964,-2.70834 -17.08085,-7.41056 -34.51063,-15.51898c-19.00826,-8.83951 -20.76952,-9.60383 -23.77694,-10.38475c-6.33055,-1.64495 -10.56753,0.54832 -13.54173,6.99517c-2.82466,6.13116 -2.75819,11.76385 0.19939,14.42235c2.14341,1.92741 4.22036,1.61172 8.37427,-1.31263c2.39265,-1.69479 4.02098,-2.62527 5.76562,-3.30651c3.7219,-1.46217 7.24441,-1.5951 10.78353,-0.432c1.96065,0.64801 6.41363,2.79143 42.3532,20.4372c23.4114,11.48139 22.99601,11.26539 24.32526,12.47833c1.76126,1.62833 2.14341,2.89112 1.34587,4.60252c-0.76432,1.66156 -2.6585,3.15696 -6.64624,5.30038c-9.70352,5.2173 -37.80053,19.20765 -47.22157,23.49448c-10.28507,4.68561 -19.58981,7.14472 -21.73323,5.73239c-0.88062,-0.58155 -0.41539,-1.61172 2.27634,-5.03453c2.11018,-2.69173 3.28989,-4.48622 4.20375,-6.3804c2.24311,-4.76868 1.84433,-8.92258 -1.3791,-13.77434c-1.89418,-2.8745 -7.64318,-8.0918 -10.45122,-9.48751c-1.39571,-0.69785 -2.64188,-0.64801 -4.30344,0.18277c-2.02711,1.01355 -5.35023,4.68561 -6.3804,7.04502c-1.01355,2.30957 -0.36555,4.33667 2.74157,8.49058c2.70834,3.63882 3.47266,5.54962 3.48928,8.80628c0,2.67511 -0.51509,4.22036 -1.97726,5.83208c-1.29601,1.46217 -3.8216,2.29295 -8.39089,2.80804c-3.20682,0.36555 -10.70046,0.28246 -13.47526,-0.14954c-2.20988,-0.34893 -4.48622,-0.98032 -5.51639,-1.54526c-2.30957,-1.26279 -3.58897,-4.05421 -3.38958,-7.36072c0.16616,-3.02404 1.04678,-5.13423 3.47266,-8.34103c2.60865,-3.47266 3.43943,-5.317 3.19019,-7.14472c-0.33232,-2.3428 -4.0376,-6.99517 -6.72933,-8.42412c-1.46217,-0.78094 -2.90773,-0.89724 -4.17052,-0.3157c-2.39265,1.09663 -7.85918,5.88193 -10.06906,8.77305c-1.34587,1.77787 -2.60865,4.32006 -3.05727,6.14778c-0.51509,2.02711 -0.38216,4.30344 0.33232,6.48008c0.88062,2.64188 2.19326,4.83514 4.96807,8.35766c2.85789,3.62221 3.22343,4.55268 2.02711,5.13423c-0.56493,0.28246 -2.01049,0.36555 -3.40621,0.18277l0.00001,0.00001zm3.24005,-47.3545c3.48928,-0.94709 5.98162,-4.2536 5.98162,-7.94227c0,-2.35941 -0.76432,-4.17052 -2.49234,-5.91516c-5.13423,-5.20068 -14.12328,-1.4954 -14.12328,5.83208c0,2.67511 1.24617,5.20068 3.35635,6.74594c2.09357,1.52863 4.68561,1.99388 7.27764,1.2794l0.00001,0.00001zm57.82234,0c3.48928,-0.94709 5.98162,-4.2536 5.98162,-7.94227c0,-4.85176 -4.1539,-8.73981 -8.92258,-8.32442c-3.57235,0.29908 -6.56317,2.7748 -7.44379,6.19762c-0.8474,3.24005 0.41539,6.8124 3.10712,8.78966c2.09357,1.52863 4.68561,1.99388 7.27764,1.2794z"/>
  </g>
 </g>

</svg>