<?xml version="1.0" standalone="no"?>
<!DOCTYPE svg PUBLIC "-//W3C//DTD SVG 20010904//EN"
 "http://www.w3.org/TR/2001/REC-SVG-20010904/DTD/svg10.dtd">
<svg version="1.0" xmlns="http://www.w3.org/2000/svg"
 width="820.000000pt" height="820.000000pt" viewBox="0 0 820.000000 820.000000"
 preserveAspectRatio="xMidYMid meet">
<metadata>
Created by potrace 1.14, written by Peter Selinger 2001-2017
</metadata>
<g transform="translate(0.000000,820.000000) scale(0.100000,-0.100000)"
fill="#000000" stroke="none">
<path d="M1150 7098 c-52 -13 -120 -42 -120 -50 0 -5 -6 -8 -14 -8 -8 0 -44
-29 -80 -65 -87 -88 -171 -261 -190 -390 -4 -23 -9 -52 -12 -65 -6 -31 -6
-312 0 -360 3 -19 7 -57 10 -85 5 -58 46 -249 77 -362 11 -43 23 -87 26 -98 3
-11 7 -27 10 -35 3 -8 7 -19 8 -25 8 -34 88 -262 115 -330 4 -11 18 -47 30
-80 21 -58 33 -88 51 -130 50 -113 59 -308 19 -387 -11 -21 -117 -166 -130
-178 -3 -3 -28 -34 -55 -70 -28 -36 -53 -67 -56 -70 -28 -25 -378 -493 -444
-593 -70 -106 -87 -195 -41 -219 31 -17 121 -19 172 -3 24 7 44 11 44 9 0 -5
227 74 275 95 22 10 51 22 65 26 14 4 48 18 75 30 28 13 95 42 150 65 97 41
135 58 275 123 36 16 99 44 140 62 41 18 116 52 165 75 50 23 108 50 130 60
22 10 83 39 135 63 52 24 97 44 100 44 3 1 32 14 65 31 33 16 83 40 110 52 28
12 96 44 153 71 56 27 104 49 106 49 3 0 51 22 108 49 56 27 155 72 218 100
63 29 129 58 145 66 291 131 484 134 621 8 35 -33 124 -152 124 -167 0 -3 13
-33 29 -68 114 -252 90 -496 -56 -576 -43 -23 -124 -19 -180 9 -26 13 -50 26
-53 29 -39 40 -300 185 -346 193 -10 1 -23 5 -29 9 -11 6 -103 20 -150 22 -61
3 -154 -15 -228 -43 -50 -18 -234 -101 -269 -121 -42 -23 -59 -32 -173 -86
-66 -31 -244 -117 -395 -191 -151 -74 -291 -142 -310 -151 -19 -9 -36 -20 -38
-24 -2 -5 -8 -8 -13 -8 -6 0 -121 -54 -256 -120 -135 -66 -249 -120 -254 -120
-5 0 -9 -4 -9 -10 0 -5 -5 -10 -11 -10 -7 0 -109 -48 -228 -106 -119 -59 -225
-110 -236 -115 -11 -5 -27 -13 -35 -18 -8 -5 -89 -46 -179 -91 -207 -102 -229
-117 -275 -185 -35 -51 -34 -99 3 -158 28 -43 93 -99 151 -129 14 -7 27 -15
30 -18 3 -3 20 -13 39 -23 19 -10 79 -42 135 -71 230 -122 911 -466 921 -466
2 0 26 -13 52 -28 26 -16 52 -29 56 -30 4 0 76 -34 160 -75 84 -41 208 -102
277 -134 69 -33 173 -83 233 -112 59 -28 109 -51 112 -51 2 0 28 -11 57 -24
186 -86 466 -179 608 -203 60 -9 144 -7 168 6 24 13 28 40 10 74 -11 22 -117
168 -128 177 -25 20 -156 240 -143 240 3 0 0 7 -7 15 -7 8 -9 15 -5 15 4 0 3
6 -2 13 -23 28 -40 221 -21 233 4 3 6 9 3 14 -10 17 46 143 100 225 29 44 91
116 137 161 84 80 221 194 233 194 4 0 19 9 35 20 93 66 228 6 361 -163 86
-108 110 -184 83 -262 -14 -44 -85 -165 -117 -201 -51 -57 -103 -156 -123
-234 -8 -33 -12 -65 -9 -70 3 -6 2 -10 -3 -10 -4 0 -5 -33 0 -75 21 -194 121
-271 395 -303 73 -8 491 -8 528 1 11 3 40 8 65 11 84 13 180 49 221 84 35 30
99 132 83 132 -4 0 -2 6 3 13 24 30 6 243 -25 291 -3 6 -7 13 -7 16 0 3 -7 16
-15 30 -9 14 -20 32 -25 41 -6 9 -40 59 -76 110 -85 121 -103 161 -102 229 0
54 24 119 56 151 7 8 18 21 23 31 18 32 111 125 155 155 83 57 149 62 228 16
70 -39 176 -127 271 -222 94 -94 132 -145 177 -236 27 -53 35 -76 50 -135 9
-35 9 -138 1 -175 -6 -22 -11 -47 -13 -56 -3 -14 -21 -60 -48 -121 -6 -16 -15
-28 -19 -28 -5 0 -8 -5 -8 -11 0 -11 -55 -95 -77 -117 -7 -7 -13 -17 -13 -20
0 -4 -10 -18 -23 -32 -67 -74 -126 -174 -120 -202 8 -32 78 -40 192 -23 60 9
227 52 276 71 22 9 47 17 55 19 19 4 146 52 185 70 17 7 58 25 93 39 145 61
304 137 1012 488 333 165 608 304 611 310 3 5 8 9 10 8 10 -6 328 159 438 228
122 75 182 147 181 219 -1 46 -52 116 -112 153 -33 20 -695 350 -1153 575
-132 65 -359 176 -505 248 -146 72 -267 131 -270 132 -3 1 -86 41 -185 89
-379 185 -504 242 -556 251 -139 26 -196 25 -308 -6 -92 -25 -171 -64 -284
-140 -174 -117 -235 -136 -313 -97 -120 59 -167 235 -115 430 52 199 142 348
256 421 79 52 219 68 323 38 18 -5 36 -10 40 -11 40 -6 115 -34 230 -86 29
-13 54 -24 56 -24 4 0 107 -47 241 -110 33 -16 92 -43 130 -60 141 -65 183
-84 359 -166 99 -46 185 -84 193 -84 7 0 13 -4 13 -10 0 -5 5 -10 11 -10 5 0
49 -18 97 -41 48 -22 105 -49 127 -59 85 -38 239 -108 328 -149 37 -17 69 -31
71 -31 2 0 37 -15 78 -34 40 -19 123 -55 183 -81 61 -25 119 -50 130 -55 43
-19 101 -43 110 -46 6 -1 28 -10 49 -19 22 -9 47 -19 55 -21 9 -2 43 -13 76
-24 124 -43 246 -58 298 -35 17 7 32 45 29 77 -1 25 -53 138 -63 138 -4 0 -10
8 -14 19 -5 15 -108 161 -160 226 -9 11 -44 57 -78 103 -33 45 -65 82 -69 82
-4 0 -8 5 -8 11 0 6 -6 17 -12 24 -15 16 -15 17 -81 100 -26 33 -53 67 -60 75
-8 8 -27 33 -43 55 -16 22 -32 42 -35 45 -22 19 -129 175 -138 202 -23 73 -25
93 -17 168 10 97 19 129 78 285 27 72 56 144 63 160 25 57 104 300 135 415 35
129 35 128 46 190 9 51 11 59 14 63 1 1 3 11 5 22 3 24 15 100 21 135 17 104
21 255 10 394 -20 258 -142 482 -312 573 -71 38 -96 44 -191 48 -131 7 -287
-52 -443 -166 -76 -56 -375 -347 -477 -465 -23 -27 -61 -69 -84 -94 -22 -25
-50 -56 -61 -70 l-19 -24 -1772 -1 -1772 0 -32 35 c-17 19 -41 46 -53 60 -163
190 -514 537 -571 564 -10 5 -19 13 -19 18 0 4 -7 8 -15 8 -8 0 -15 4 -15 8 0
14 -164 91 -231 108 -74 19 -189 25 -239 12z m1867 -3462 c81 -15 182 -100
222 -186 20 -44 25 -70 25 -130 -1 -90 -7 -120 -39 -175 -131 -222 -461 -214
-580 14 -15 28 -28 62 -29 76 0 14 -3 25 -6 25 -7 0 -4 78 4 126 32 172 215
286 403 250z m2313 0 c84 -19 180 -98 219 -182 20 -41 38 -113 36 -139 -13
-150 -73 -242 -195 -302 -46 -23 -69 -27 -140 -28 -73 0 -93 4 -142 28 -70 34
-140 110 -167 180 -35 93 -19 238 34 305 94 120 218 168 355 138z"/>
</g>
</svg>
